<svg xmlns="http://www.w3.org/2000/svg" fill="none" viewBox="0 0 39 39">
  <path fill="#fff" d="M30.319 21.636a8.714 8.714 0 0 0-7.909 5.1 3.195 3.195 0 0 1-5.82 0 8.707 8.707 0 0 0-2.209-2.961l-.024-.02a9.144 9.144 0 0 0-.465-.377l-.022-.016a8.943 8.943 0 0 0-.459-.32l-.058-.038a8.87 8.87 0 0 0-.48-.285c-.032-.019-.066-.036-.098-.053a8.598 8.598 0 0 0-.51-.255 3.195 3.195 0 0 1 0-5.82c.173-.079.342-.165.509-.255.034-.018.067-.035.1-.054a8.834 8.834 0 0 0 .99-.64l.029-.02c.157-.119.31-.244.46-.373l.031-.027a8.723 8.723 0 0 0 2.206-2.957 3.195 3.195 0 0 1 5.82 0 8.714 8.714 0 0 0 7.908 5.1c4.787 0 8.682-3.896 8.682-8.683S35.107 0 30.319 0a8.714 8.714 0 0 0-7.909 5.1 3.195 3.195 0 0 1-5.82 0c-.008-.02-.019-.038-.027-.058a9.275 9.275 0 0 0-.254-.508l-.007-.012a8.748 8.748 0 0 0-.283-.477c-.022-.034-.042-.068-.065-.101-.21-.32-.44-.625-.688-.915l-.056-.063c-.262-.3-.544-.58-.845-.841l-.003-.002A8.64 8.64 0 0 0 9.382.03L9.256.02A8.38 8.38 0 0 0 8.682 0C3.895 0 0 3.895 0 8.682a8.714 8.714 0 0 0 5.1 7.908 3.195 3.195 0 0 1 0 5.82A8.714 8.714 0 0 0 0 30.318C0 35.105 3.895 39 8.682 39c.194 0 .385-.009.574-.02l.126-.01a8.648 8.648 0 0 0 4.98-2.094h.002c.3-.262.584-.544.846-.843.019-.02.036-.041.054-.062a8.599 8.599 0 0 0 1.038-1.498l.005-.006c.09-.167.174-.338.255-.51.008-.02.02-.037.028-.057a3.195 3.195 0 0 1 5.82 0 8.714 8.714 0 0 0 7.908 5.1C35.105 39 39 35.105 39 30.318c0-4.787-3.895-8.682-8.682-8.682Z"/>
</svg>
