<svg xmlns="http://www.w3.org/2000/svg" fill="none" viewBox="0 0 209 49">
  <g fill="#8838EC" clip-path="url(#a)">
    <path d="M59.238 20.13c-1.681-.919-2.945-2.195-3.794-3.826-.849-1.631-1.272-3.51-1.272-5.637 0-2.128.458-4.037 1.375-5.644.916-1.608 2.22-2.846 3.912-3.716C61.15.437 63.124 0 65.382 0c2.376 0 4.34.463 5.894 1.387 1.553.925 2.778 2.297 3.676 4.117l-5 2.373a5.36 5.36 0 0 0-1.768-1.965c-.754-.51-1.67-.765-2.743-.765-1.006 0-1.89.227-2.655.683-.765.456-1.356 1.1-1.775 1.936-.42.837-.628 1.803-.628 2.9 0 1.74.42 3.117 1.264 4.131.843 1.014 2.098 1.52 3.763 1.52 1.243 0 2.268-.31 3.077-.933A6.034 6.034 0 0 0 70.32 13.1l4.94 2.552c-.72 1.72-1.881 3.128-3.484 4.22-1.603 1.094-3.725 1.64-6.367 1.64-2.435 0-4.493-.46-6.174-1.379l.002-.002ZM81.915 20.13c-1.681-.919-2.957-2.197-3.83-3.834-.873-1.637-1.31-3.513-1.31-5.63 0-2.116.45-4.05 1.346-5.658.897-1.607 2.189-2.843 3.875-3.71C83.683.434 85.68.002 87.986.002c2.307 0 4.284.439 5.96 1.314 1.676.875 2.963 2.116 3.861 3.724.897 1.607 1.346 3.483 1.346 5.629 0 2.146-.464 4.055-1.391 5.696-.927 1.642-2.236 2.91-3.928 3.805-1.69.896-3.651 1.343-5.879 1.343-2.347 0-4.36-.46-6.041-1.379l.001-.002Zm8.682-4.502c.725-.48 1.272-1.148 1.641-2.003.37-.855.555-1.843.555-2.96s-.2-2.047-.6-2.878c-.4-.83-.962-1.474-1.686-1.928-.725-.454-1.566-.683-2.522-.683-.957 0-1.832.227-2.566.683-.734.454-1.3 1.096-1.694 1.922-.394.825-.591 1.787-.591 2.884s.197 2.106.591 2.967c.395.86.957 1.528 1.687 2.002.73.475 1.578.713 2.545.713 1.035 0 1.915-.24 2.64-.72ZM102.188.311h8.652c3.668 0 6.468.846 8.401 2.536 1.932 1.692 2.899 4.277 2.899 7.758 0 2.245-.456 4.164-1.368 5.756a8.887 8.887 0 0 1-3.861 3.62c-1.661.82-3.592 1.23-5.79 1.23h-8.933V.312Zm8.652 15.858c1.665 0 2.931-.47 3.794-1.41.864-.939 1.294-2.305 1.294-4.094 0-1.789-.426-3.023-1.279-3.939-.853-.914-2.152-1.372-3.897-1.372h-2.514v10.814h2.604l-.002.001ZM125.485.311h15.782v4.896h-9.732v3.1h8.815v4.94h-8.815v3.04h10.338v4.926h-16.388V.311ZM59.06 47.62c-1.68-.92-2.945-2.196-3.794-3.827-.848-1.632-1.272-3.51-1.272-5.637s.458-4.037 1.375-5.644c.916-1.608 2.22-2.846 3.913-3.716 1.69-.87 3.665-1.306 5.923-1.306 2.375 0 4.34.463 5.893 1.387 1.554.925 2.778 2.297 3.676 4.117l-5 2.373a5.36 5.36 0 0 0-1.768-1.965c-.754-.51-1.669-.765-2.743-.765-1.006 0-1.89.227-2.655.683-.764.454-1.356 1.1-1.774 1.936-.42.837-.63 1.803-.63 2.9 0 1.74.422 3.117 1.265 4.131.843 1.014 2.098 1.52 3.764 1.52 1.243 0 2.267-.31 3.076-.933a6.034 6.034 0 0 0 1.834-2.285l4.94 2.552c-.72 1.72-1.881 3.128-3.484 4.22-1.602 1.094-3.725 1.64-6.366 1.64-2.436 0-4.494-.46-6.175-1.379l.002-.002ZM81.736 47.62c-1.68-.92-2.957-2.198-3.83-3.835-.872-1.637-1.31-3.513-1.31-5.63 0-2.116.45-4.05 1.346-5.658.897-1.607 2.189-2.843 3.876-3.71 1.686-.865 3.682-1.297 5.99-1.297 2.307 0 4.284.439 5.96 1.314 1.675.875 2.962 2.116 3.86 3.724.897 1.607 1.346 3.483 1.346 5.629 0 2.146-.464 4.055-1.391 5.696-.927 1.642-2.235 2.91-3.927 3.805-1.69.896-3.652 1.343-5.88 1.343-2.347 0-4.36-.46-6.041-1.379l.001-.002Zm8.682-4.502c.725-.48 1.273-1.148 1.642-2.003.37-.855.554-1.842.554-2.96 0-1.116-.2-2.046-.6-2.877-.4-.831-.962-1.474-1.686-1.928-.725-.455-1.566-.683-2.522-.683-.957 0-1.832.227-2.566.682-.734.455-1.3 1.096-1.693 1.922-.394.826-.592 1.788-.592 2.885 0 1.097.198 2.105.592 2.966.394.86.956 1.529 1.686 2.003.73.474 1.578.712 2.545.712 1.035 0 1.916-.24 2.64-.719ZM102.01 27.802h7.114l7.262 14.003c-.119-.88-.178-2.62-.178-5.222v-8.781h5.576v20.901h-7.203l-7.129-13.424c.078 1.939.118 3.91.118 5.92v7.506h-5.56V27.802ZM125.885 27.802h7.114l7.262 14.003c-.119-.88-.178-2.62-.178-5.222v-8.781h5.576v20.901h-7.203l-7.129-13.424c.078 1.939.118 3.91.118 5.92v7.506h-5.56V27.802ZM149.759 27.802h15.781v4.895h-9.732v3.1h8.816v4.94h-8.816v3.041h10.338v4.925h-16.387V27.802ZM173.538 47.62c-1.681-.92-2.945-2.196-3.794-3.827-.849-1.632-1.272-3.51-1.272-5.637s.458-4.037 1.375-5.644c.916-1.608 2.22-2.846 3.912-3.716 1.691-.87 3.665-1.306 5.923-1.306 2.376 0 4.341.463 5.894 1.387 1.553.925 2.778 2.297 3.676 4.117l-5 2.373a5.367 5.367 0 0 0-1.768-1.965c-.754-.51-1.669-.765-2.743-.765-1.006 0-1.891.227-2.655.683-.765.454-1.356 1.1-1.775 1.936-.419.837-.629 1.803-.629 2.9 0 1.74.421 3.117 1.265 4.131.843 1.014 2.098 1.52 3.763 1.52 1.243 0 2.268-.31 3.076-.933a6.039 6.039 0 0 0 1.835-2.285l4.94 2.552c-.72 1.72-1.881 3.128-3.484 4.22-1.603 1.094-3.725 1.64-6.367 1.64-2.435 0-4.493-.46-6.175-1.379l.003-.002ZM196.887 32.846h-6.049v-5.044H209v5.044h-6.05v15.857h-6.064V32.846h.001ZM37.217 27.13c-4.166 0-7.976 2.463-9.708 6.278a3.922 3.922 0 0 1-7.143 0 10.716 10.716 0 0 0-2.713-3.645l-.03-.025c-.184-.16-.375-.316-.57-.464l-.027-.019a10.939 10.939 0 0 0-.564-.394l-.07-.047c-.192-.122-.39-.24-.59-.35-.04-.024-.08-.045-.12-.066-.206-.111-.414-.217-.627-.314a3.935 3.935 0 0 1-2.298-3.583c0-1.543.898-2.943 2.298-3.582.213-.098.42-.203.625-.314l.124-.067a10.751 10.751 0 0 0 1.215-.788l.035-.026c.193-.145.38-.299.565-.458l.038-.033c1.142-1 2.07-2.236 2.707-3.641a3.922 3.922 0 0 1 7.143 0c1.732 3.815 5.543 6.278 9.708 6.278 5.877 0 10.658-4.795 10.658-10.689S43.094.491 37.217.491c-4.166 0-7.976 2.465-9.708 6.28a3.922 3.922 0 0 1-7.143 0c-.011-.025-.024-.047-.035-.071-.099-.213-.201-.421-.312-.626l-.008-.014c-.11-.2-.226-.396-.348-.588l-.08-.125a10.869 10.869 0 0 0-.912-1.204 10.864 10.864 0 0 0-1.038-1.035s-.002-.003-.004-.003A10.59 10.59 0 0 0 11.517.53l-.155-.012a10.255 10.255 0 0 0-.704-.025C4.78.492 0 5.287 0 11.182c0 4.177 2.457 7.999 6.26 9.736A3.935 3.935 0 0 1 8.558 24.5a3.935 3.935 0 0 1-2.298 3.582A10.73 10.73 0 0 0 0 37.82c0 5.894 4.781 10.69 10.658 10.69.237 0 .471-.011.704-.026l.155-.012a10.6 10.6 0 0 0 6.114-2.578 10.9 10.9 0 0 0 1.04-1.038 10.59 10.59 0 0 0 .989-1.327c.122-.193.24-.391.351-.593l.006-.008c.111-.206.214-.415.313-.628.01-.024.024-.045.034-.07a3.922 3.922 0 0 1 7.143 0c1.732 3.815 5.543 6.28 9.708 6.28 5.877 0 10.658-4.796 10.658-10.69 0-5.894-4.781-10.69-10.658-10.69h.002Z"/>
  </g>
  <defs>
    <clipPath id="a">
      <path fill="#fff" d="M0 0h209v49H0z"/>
    </clipPath>
  </defs>
</svg>
