<svg xmlns="http://www.w3.org/2000/svg" fill="none" viewBox="0 0 37 33">
  <path fill="#fff" d="M18.5 33c-.469 0-.89-.188-1.266-.563L3.524 18.517a10.147 10.147 0 0 1-2.25-3.375A11.057 11.057 0 0 1 .5 11.062c0-1.406.258-2.742.773-4.007.563-1.313 1.313-2.438 2.25-3.375a11.134 11.134 0 0 1 3.235-2.25C8.023.867 9.383.586 10.836.586c1.781 0 3.305.422 4.57 1.266 1.266.796 2.297 1.71 3.094 2.742.797-1.078 1.828-2.016 3.094-2.813C22.859.984 24.383.586 26.164.586c1.453 0 2.79.281 4.008.844a10.863 10.863 0 0 1 3.305 2.25c.937.937 1.664 2.062 2.18 3.375a9.757 9.757 0 0 1 .843 4.008c0 1.406-.258 2.765-.773 4.078a10.149 10.149 0 0 1-2.25 3.375L19.766 32.438c-.282.374-.703.562-1.266.562ZM10.836 4.172c-.938 0-1.828.187-2.672.562-.797.375-1.5.891-2.11 1.547a7.157 7.157 0 0 0-1.476 2.18 6.767 6.767 0 0 0-.492 2.601c0 .938.164 1.829.492 2.672.328.844.82 1.594 1.477 2.25L18.5 28.641l12.445-12.657a6.47 6.47 0 0 0 1.477-2.25 7.307 7.307 0 0 0 .492-2.671c0-.938-.187-1.805-.562-2.602a6.24 6.24 0 0 0-1.407-2.18 6.032 6.032 0 0 0-4.64-2.11c-1.5 0-2.79.47-3.867 1.407-1.032.89-1.711 1.875-2.04 2.953-.375 1.172-1.007 1.758-1.898 1.758a1.78 1.78 0 0 1-1.055-.351c-.328-.235-.539-.516-.633-.844 0-.094-.117-.399-.351-.914-.188-.516-.516-1.055-.984-1.617-.47-.61-1.079-1.149-1.829-1.618-.75-.515-1.687-.773-2.812-.773Z"/>
</svg>
