<svg xmlns="http://www.w3.org/2000/svg" fill="none" viewBox="0 0 1416 20000">
  <path stroke="#F16A36" stroke-width="20" d="M1213-10 845.393 345.416A80 80 0 0 0 821 402.93V20003.5"/>
  <path stroke="#F16A36" stroke-width="20" d="M1222-64 816.338 329.483A90 90 0 0 0 789 394.085V2595l1.5 17419.5"/>
  <path stroke="#8838EC" stroke-width="20" d="M76 20082.5V1190.16c0-44.18 35.817-80 80-80h1140c44.18 0 80-35.82 80-80V-11.5"/>
  <path stroke="#D9D100" stroke-width="20" d="M76-20v1029.16c0 32.99 26.636 59.79 59.628 60l505.492 3.13h533.67c19.41 0 35.12 15.8 35 35.21l-6.77 1126.39 1.48 17782.61"/>
  <path stroke="#D9D100" stroke-width="20" d="M109-23s.005 722.263.001 1019.493c-.001 22.087 17.358 39.677 39.449 39.707 178.064.29 832.831 1.84 1034.22 2.31 33.08.08 59.33 26.92 59.33 60.01L1240.5 20007"/>
  <path stroke="#009BE2" stroke-width="20" d="M1406-64v85c0 30.376-24.62 55-55 55H962c-30.376 0-55 24.624-55 55v720.453L902 20000"/>
  <path stroke="#009BE2" stroke-width="20" d="M1346-60V9c0 19.33-15.67 35-35 35H957.586c-43.955 0-79.677 35.462-79.998 79.415L872 887.072V20006.5"/>
  <path fill="#8838EC" d="M33 0h20v20000H33zM0 0h20v20000H0z"/>
  <path fill="#D9D100" d="M1298 0h20v20000h-20zM1265 0h20v20000h-20z"/>
</svg>