<svg xmlns="http://www.w3.org/2000/svg" fill="none" viewBox="0 0 1572 2690">
  <g stroke-width="20" clip-path="url(#a)">
    <path stroke="#8838EC" stroke-linecap="square" d="M132 3409.5v-3425M165-13.5V3413"/>
    <path stroke="#D9D100" d="M1317 3421V600c0-44.183 35.82-80 80-80h174.5"/>
    <path stroke="#D9D100" d="M1351 3420V601c0-27.614 22.39-50 50-50h173"/>
    <path stroke="#009BE2" d="M1574.26 855H1004c-30.376 0-55 24.624-55 55v503.59c0 18.61 9.413 35.96 25.017 46.11L1585 1857"/>
    <path stroke="#009BE2" d="M1574.38 883H1009c-16.569 0-30 13.431-30 30v493.47c0 10.16 5.142 19.63 13.663 25.17L1580 1813"/>
    <path stroke="#009BE2" d="M1585 825H999.363c-43.885 0-79.577 35.353-79.996 79.236l-4.945 517.834a80 80 0 0 0 36.705 68.04L1585 1898"/>
    <path stroke="#F16A36" d="m-16.5 467.5 851.004 716A80.008 80.008 0 0 1 863 1244.72V2547c0 44.18-35.817 80-80 80H.5"/>
    <path stroke="#F16A36" d="m-10 524 440.999 366.568 379.042 315.542a49.994 49.994 0 0 1 18.01 38.32l2.84 1300.46c.06 27.66-22.343 50.11-50 50.11H1.5"/>
    <path stroke="#F16A36" d="m-13.5 569 796.269 658.49a19.99 19.99 0 0 1 7.253 15.24l10.81 1299.1c.093 11.11-8.888 20.17-19.999 20.17H0"/>
    <path stroke="#8838EC" d="M197 3418.5V1190c0-44.18 35.817-80 80-80h1298M-2 1110h24c44.183 0 80 35.82 80 80v2230"/>
    <path stroke="#D9D100" d="M200-20v1029.03c0 32.98 26.62 59.77 59.6 59.99l466.151 3.11h489.029c22.17 0 40.12 18.05 40 40.23l-6.28 1121.21V3418.5"/>
    <path stroke="#D9D100" d="M230.5-16.5s.004 722.148.001 1019.34c-.001 22.09 17.52 39.67 39.612 39.71 168.462.3 763.777 1.81 954.867 2.3 33.08.08 59.52 26.92 59.52 60V3423"/>
  </g>
  <defs>
    <clipPath id="a">
      <path fill="#fff" d="M0 0h1572v3415H0z"/>
    </clipPath>
  </defs>
</svg>