<svg xmlns="http://www.w3.org/2000/svg" fill="none" viewBox="0 0 1572 645">
  <g clip-path="url(#a)">
    <path stroke="#F16A36" stroke-width="20" d="m1255-2669-367.607 355.42A79.977 79.977 0 0 0 863-2256.07V652"/>
    <path stroke="#F16A36" stroke-width="20" d="m1264-2723-405.662 393.48A90.01 90.01 0 0 0 831-2264.91V645"/>
    <path stroke="#8838EC" stroke-width="20" d="M118 760v-2228.84c0-44.18 35.817-80 80-80h1140c44.18 0 80-35.82 80-80V-2670.5"/>
    <path stroke="#D9D100" stroke-width="20" d="M118-2679v1029.16c0 32.99 26.636 59.79 59.628 60l505.492 3.13h533.67c19.41 0 35.12 15.8 35 35.21l-6.77 1126.395V760"/>
    <path stroke="#D9D100" stroke-width="20" d="M151-2682s.005 722.26.001 1019.49c-.001 22.09 17.358 39.68 39.449 39.71 178.042.29 832.67 1.84 1034.14 2.31 33.11.08 59.38 26.97 59.33 60.08L1281 758.5"/>
    <path stroke="#009BE2" stroke-width="20" d="M1448-2723v85c0 30.38-24.62 55-55 55h-389c-30.376 0-55 24.62-55 55V647"/>
    <path stroke="#009BE2" stroke-width="20" d="M1388-2719v69c0 19.33-15.67 35-35 35H999.586c-43.955 0-79.677 35.46-79.998 79.41L914-1771.93V647"/>
    <path fill="#8838EC" d="M75-2659h20V645H75zM42-2659h20V645H42z"/>
    <path fill="#D9D100" d="M1340-2659h20V645h-20zM1307-2659h20V645h-20z"/>
  </g>
  <defs>
    <clipPath id="a">
      <path fill="#fff" d="M0-2659h1572V645H0z"/>
    </clipPath>
  </defs>
</svg>