<svg width="1440" height="3304" viewBox="0 0 1440 3304" fill="none" xmlns="http://www.w3.org/2000/svg">
<path d="M91 -3V3332" stroke="#8838EC" stroke-width="10"/>
<path d="M113 -8V3322" stroke="#8838EC" stroke-width="10"/>
<path d="M135 -8V1009H1190.5V3328" stroke="#D9D100" stroke-width="10"/>
<path d="M158 -33V984H1213.5V3316" stroke="#D9D100" stroke-width="10"/>
<path d="M1240 3314V435H1447" stroke="#D9D100" stroke-width="10"/>
<path d="M1263 3308V981H1439" stroke="#D9D100" stroke-width="10"/>
<path d="M1448.5 719H837V1355L1459 1802M1448.5 771L877 766L883 1327L1459 1736" stroke="#009BE2" stroke-width="10"/>
<path d="M1448 744H858V1340L1465 1774" stroke="#009BE2" stroke-width="10"/>
<path d="M3 434L809 1116V3308" stroke="#F16A36" stroke-width="10"/>
<path d="M-3 460L787 1126V3332" stroke="#F16A36" stroke-width="10"/>
<path d="M135 3316V1031.5H1442.5" stroke="#8838EC" stroke-width="10"/>
</svg>
