<svg xmlns="http://www.w3.org/2000/svg" fill="none" viewBox="0 0 31 37">
  <path fill="#fff" d="M15.5 36.25c-.281 0-.68-.14-1.195-.422-1.594-1.125-3.188-2.46-4.782-4.008a37.586 37.586 0 0 1-4.359-5.062 29.598 29.598 0 0 1-3.094-5.906C1.273 18.789.875 16.727.875 14.664c0-1.969.375-3.82 1.125-5.555.75-1.78 1.781-3.328 3.094-4.64 1.312-1.313 2.86-2.344 4.64-3.094C11.516.625 13.438.25 15.5.25c2.063 0 3.984.375 5.766 1.125 1.78.75 3.328 1.781 4.64 3.094C27.22 5.78 28.25 7.329 29 9.109c.75 1.782 1.125 3.68 1.125 5.696a15.94 15.94 0 0 1-.984 5.554 23.322 23.322 0 0 1-2.391 4.993 35.88 35.88 0 0 1-3.234 4.218 55.554 55.554 0 0 1-3.164 3.305c-.985.89-1.829 1.594-2.532 2.11-.656.515-1.03.796-1.125.843-.468.281-.867.422-1.195.422Zm0-32.414c-1.547 0-3 .305-4.36.914a11.76 11.76 0 0 0-3.515 2.32c-.984.985-1.758 2.157-2.32 3.516-.563 1.312-.844 2.742-.844 4.289 0 1.969.445 3.89 1.336 5.766a30.413 30.413 0 0 0 3.094 5.062c1.218 1.5 2.437 2.813 3.656 3.938 1.265 1.125 2.25 1.968 2.953 2.53.703-.562 1.664-1.405 2.883-2.53 1.265-1.125 2.484-2.438 3.656-3.938a27.88 27.88 0 0 0 3.164-5.062c.89-1.875 1.336-3.797 1.336-5.766 0-1.547-.281-2.977-.844-4.29a10.18 10.18 0 0 0-2.39-3.515c-.985-.984-2.157-1.758-3.516-2.32-1.312-.61-2.742-.914-4.289-.914Zm0 18c-1.922 0-3.54-.633-4.852-1.898-1.265-1.313-1.898-2.93-1.898-4.852 0-1.922.633-3.516 1.898-4.781 1.313-1.313 2.93-1.97 4.852-1.97 1.922 0 3.516.657 4.781 1.97 1.313 1.265 1.969 2.86 1.969 4.78 0 1.923-.656 3.54-1.969 4.852-1.265 1.266-2.86 1.899-4.781 1.899Zm0-9.914c-.938 0-1.71.305-2.32.914-.563.562-.844 1.312-.844 2.25 0 .937.281 1.71.844 2.32.61.563 1.383.844 2.32.844.938 0 1.688-.281 2.25-.844.61-.61.914-1.383.914-2.32 0-.938-.305-1.688-.914-2.25-.563-.61-1.313-.914-2.25-.914Z"/>
</svg>
