<svg xmlns="http://www.w3.org/2000/svg" fill="none" viewBox="0 0 1440 4362">
  <g opacity=".2">
    <path fill="#f16a36" d="M1085.48 4511.68v-180.96H904.504v180.96z"/>
    <path fill="#d9d100" d="M904.631 4511.68v-180.96H723.654v180.96z"/>
    <path fill="#35f2d4" d="M723.654 4511.68v-180.96H542.677v180.96z"/>
    <path fill="#8838ec" d="M1266.46 4330.84v-180.96h-180.98v180.96z"/>
    <path fill="#d9d100" d="M904.631 4330.84v-180.96H723.654v180.96z"/>
    <path fill="#8838ec" d="M723.654 4330.84v-180.96H542.677v180.96z"/>
    <path fill="#d9d100" d="M1447.43 4330.84v-180.96h-180.97v180.96zM1085.48 4149.88v-180.96H904.504v180.96z"/>
    <path fill="#35f2d4" d="M904.631 4149.88v-180.96H723.654v180.96z"/>
    <path fill="#d9d100" d="M1447.43 4149.88v-180.96h-180.97v180.96z"/>
    <path fill="#8838ec" d="M1266.46 3968.92v-180.96h-180.98v180.96z"/>
    <path fill="#35f2d4" d="M1085.48 3968.92v-180.96H904.504v180.96z"/>
    <path fill="#d9d100" d="M723.653 3968.92v-180.96H542.677v180.96z"/>
    <path fill="#8838ec" d="M1447.43 3968.92v-180.96h-180.97v180.96zM1266.46 3788.09v-180.96h-180.98v180.96z"/>
    <path fill="#35f2d4" d="M1085.48 3788.09v-180.96H904.504v180.96z"/>
    <path fill="#f16a36" d="M723.654 3788.09v-180.96H542.677v180.96z"/>
    <path fill="#8838ec" d="M1447.43 3788.09v-180.96h-180.97v180.96z"/>
    <path fill="#d9d100" d="M1266.46 3607.13v-180.96h-180.98v180.96z"/>
    <path fill="#8838ec" d="M904.631 3788.09v-180.96H723.654v180.96z"/>
    <path fill="#0090da" d="M1266.46 3426.3v-180.96h-180.98v180.96z"/>
    <path fill="#8838ec" d="M1085.48 3426.3v-180.96H904.504v180.96z"/>
    <path fill="#f16a36" d="M904.631 3426.3v-180.96H723.654v180.96z"/>
    <path fill="#d9d100" d="M723.654 3426.3v-180.96H542.677v180.96z"/>
    <path fill="#35f2d4" d="M1447.43 3426.3v-180.96h-180.97v180.96z"/>
    <path fill="#d9d100" d="M1266.46 3245.34v-180.96h-180.98v180.96zM1085.48 3245.34v-180.96H904.504v180.96z"/>
    <path fill="#8838ec" d="M723.654 3245.34v-180.96H542.677v180.96zM1266.46 3064.5v-180.96h-180.98v180.96zM1085.48 3064.5v-180.96H904.504v180.96z"/>
    <path fill="#35f2d4" d="M1447.43 3064.5v-180.96h-180.97v180.96zM1266.46 2883.54v-180.96h-180.98v180.96z"/>
    <path fill="#8838ec" d="M1085.48 2883.54v-180.96H904.504v180.96z"/>
    <path fill="#d9d100" d="M904.631 2883.54v-180.96H723.654v180.96z"/>
    <path fill="#8838ec" d="M1085.48 2702.58v-180.96H904.504v180.96z"/>
    <path fill="#d9d100" d="M904.631 2702.58v-180.96H723.654v180.96z"/>
    <path fill="#35f2d4" d="M1447.43 2702.58v-180.96h-180.97v180.96z"/>
    <path fill="#d9d100" d="M1266.46 2521.75v-180.96h-180.98v180.96z"/>
    <path fill="#ba066c" d="M723.653 2521.75v-180.96H542.677v180.96z"/>
    <path fill="#d9d100" d="M1085.48 2340.79v-180.96H904.504v180.96z"/>
    <path fill="#8838ec" d="M723.654 2340.79v-180.96H542.677v180.96zM1447.43 2340.79v-180.96h-180.97v180.96z"/>
    <path fill="#d9d100" d="M1266.46 2159.96V1979h-180.98v180.96zM904.631 2159.96V1979H723.654v180.96zM723.654 2159.96V1979H542.677v180.96z"/>
    <path fill="#ba066c" d="M1447.43 2159.95v-180.96l-180.97.01v180.95z"/>
    <path fill="#8838ec" d="M1266.46 1978.99v-180.96h-180.98v180.96z"/>
    <path fill="#d9d100" d="M1085.48 1978.99v-180.96H904.504v180.96z"/>
    <path fill="#35f2d4" d="M904.631 1978.99v-180.96H723.654v180.96z"/>
    <path fill="#d9d100" d="M1266.46 1798.04v-180.96h-180.98v180.96z"/>
    <path fill="#35f2d4" d="M904.631 1798.04v-180.96H723.654v180.96z"/>
    <path fill="#8838ec" d="M1266.46 1617.2v-180.96h-180.98v180.96z"/>
    <path fill="#35f2d4" d="M1085.48 1617.2v-180.96H904.504v180.96zM723.654 1617.2v-180.96H542.677v180.96zM1447.43 1617.2v-180.96h-180.97v180.96z"/>
    <path fill="#8838ec" d="M1085.48 1436.24v-180.96H904.504v180.96z"/>
    <path fill="#35f2d4" d="M904.631 1436.24v-180.96H723.654v180.96z"/>
    <path fill="#d9d100" d="M723.654 1436.24v-180.96H542.677v180.96z"/>
    <path fill="#8838ec" d="M1266.46 1255.41v-180.96h-180.98v180.96zM904.631 1255.41v-180.96H723.654v180.96zM723.654 1255.41v-180.96H542.677v180.96z"/>
    <path fill="#35f2d4" d="M904.631 1074.45V893.489H723.654v180.961z"/>
    <path fill="#8838ec" d="M1085.48 893.615V712.656H904.504v180.959zM1447.43 893.615V712.656h-180.97v180.959z"/>
    <path fill="#d9d100" d="M904.631 893.615V712.656H723.654v180.959z"/>
    <path fill="#8838ec" d="M723.654 893.615V712.656H542.677v180.959z"/>
    <path fill="#d9d100" d="M1266.46 712.655V531.694h-180.98v180.961z"/>
    <path fill="#8838ec" d="M1085.48 712.655V531.694H904.504v180.961z"/>
    <path fill="#35f2d4" d="M723.653 712.654V531.693H542.677v180.961z"/>
    <path fill="#ba066c" d="M1085.48 531.697V350.736H904.504v180.961z"/>
    <path fill="#f16a36" d="M904.631 531.697V350.736H723.654v180.961z"/>
    <path fill="#d9d100" d="M1266.46 350.862V169.903h-180.98v180.959zM904.631 350.862V169.903H723.654v180.959z"/>
    <path fill="#8838ec" d="M723.654 350.862V169.903H542.677v180.959zM1266.46 169.901V-11.058h-180.98v180.959z"/>
    <path fill="#35f2d4" d="M1447.43 169.901V-11.058h-180.97v180.959z"/>
    <path fill="#009be2" d="M1085.48 169.901V-11.058H904.504v180.959z"/>
    <path fill="#35f2d4" d="M904.631 169.901V-11.058H723.654v180.959zM1447.43 531.697V350.736h-180.97v180.961z"/>
    <path fill="#d9d100" d="M542.804 4511.68v-180.96H361.827v180.96z"/>
    <path fill="#ba066c" d="M361.827 4511.68v-180.96H180.851v180.96z"/>
    <path fill="#35f2d4" d="M180.977 4511.68v-180.96H.001v180.96z"/>
    <path fill="#d9d100" d="M361.827 4330.84v-180.96H180.851v180.96z"/>
    <path fill="#8838ec" d="M180.977 4330.84v-180.96H.001v180.96z"/>
    <path fill="#d9d100" d="M542.804 4149.88v-180.96H361.827v180.96z"/>
    <path fill="#35f2d4" d="M361.827 4149.88v-180.96H180.851v180.96zM542.804 3968.92v-180.96H361.827v180.96z"/>
    <path fill="#d9d100" d="M180.977 3968.92v-180.96H0v180.96z"/>
    <path fill="#35f2d4" d="M361.827 3788.09v-180.96H180.851v180.96z"/>
    <path fill="#35f2d4" d="M180.977 3788.09v-180.96H0v180.96z"/>
    <path fill="#d9d100" d="M542.804 3607.13v-180.96H361.827v180.96z"/>
    <path fill="#0090da" d="M180.977 3607.13v-180.96H0v180.96z"/>
    <path fill="#35f2d4" d="M542.804 3426.3v-180.96H361.827v180.96z"/>
    <path fill="#8838ec" d="M361.827 3426.3v-180.96H180.851v180.96z"/>
    <path fill="#d9d100" d="M180.977 3426.3v-180.96H0v180.96zM542.804 3245.34v-180.96H361.827v180.96zM361.827 3245.34v-180.96H180.851v180.96z"/>
    <path fill="#35f2d4" d="M180.977 3245.34v-180.96H0v180.96z"/>
    <path fill="#8838ec" d="M542.804 3064.5v-180.96H361.827v180.96z"/>
    <path fill="#35f2d4" d="M180.977 3064.5v-180.96H0v180.96zM361.827 2883.54v-180.96H180.851v180.96z"/>
    <path fill="#d9d100" d="M180.977 2883.54v-180.96H0v180.96z"/>
    <path fill="#8838ec" d="M542.804 2702.58v-180.96H361.827v180.96z"/>
    <path fill="#ba066c" d="M361.827 2702.58v-180.96H180.851v180.96z"/>
    <path fill="#8838ec" d="M180.977 2702.58v-180.96H0v180.96z"/>
    <path fill="#35f2d4" d="M180.977 2521.75v-180.96H0v180.96z"/>
    <path fill="#d9d100" d="M542.804 2340.79v-180.96H361.827v180.96z"/>
    <path fill="#8838ec" d="M361.827 2340.79v-180.96H180.851v180.96z"/>
    <path fill="#8838ec" d="M180.977 2340.79v-180.96H0v180.96z"/>
    <path fill="#d9d100" d="M361.827 2159.96V1979H180.851v180.96z"/>
    <path fill="#d9d100" d="M180.977 2159.96V1979H0v180.96z"/>
    <path fill="#f16a36" d="M542.804 1978.99v-180.96H361.827v180.96z"/>
    <path fill="#35f2d4" d="M180.977 1978.99v-180.96H0v180.96z"/>
    <path fill="#d9d100" d="M542.804 1798.04v-180.96H361.827v180.96z"/>
    <path fill="#35f2d4" d="M361.827 1798.04v-180.96H180.851v180.96z"/>
    <path fill="#0090da" d="M180.977 1798.04v-180.96H0v180.96z"/>
    <path fill="#35f2d4" d="M542.804 1617.2v-180.96H361.827v180.96z"/>
    <path fill="#f16a36" d="M180.977 1617.2v-180.96H0v180.96z"/>
    <path fill="#8838ec" d="M542.804 1436.24v-180.96H361.827v180.96z"/>
    <path fill="#d9d100" d="M180.977 1436.24v-180.96H0v180.96z"/>
    <path fill="#8838ec" d="M180.977 1255.41v-180.96H0v180.96z"/>
    <path fill="#35f2d4" d="M361.827 1074.45V893.488H180.85v180.962z"/>
    <path fill="#8838ec" d="M542.804 893.615V712.656H361.827v180.959z"/>
    <path fill="#d9d100" d="M361.827 893.615V712.656H180.85v180.959z"/>
    <path fill="#8838ec" d="M180.977 893.615V712.656H0v180.959z"/>
    <path fill="#0090da" d="M180.977 712.655V531.694H0v180.961z"/>
    <path fill="#d9d100" d="M542.804 531.697V350.736H361.827v180.961z"/>
    <path fill="#35f2d4" d="M361.827 531.697V350.736H180.85v180.961z"/>
    <path fill="#35f2d4" d="M180.977 531.697V350.736H0v180.961z"/>
    <path fill="#8838ec" d="M180.977 350.862V169.903H0v180.959z"/>
    <path fill="#d9d100" d="M542.804 169.901V-11.058H361.827v180.959z"/>
    <path fill="#35f2d4" d="M361.827 169.901V-11.058H180.85v180.959z"/>
    <path fill="#d9d100" d="M1447.43 1074.45V893.489h-180.97v180.961z"/>
  </g>
</svg>