<svg xmlns="http://www.w3.org/2000/svg" viewBox="0 -50 275 275">
  <defs>
    <style>
      .cls-4{fill:#0090da}
    </style>
  </defs>
  <path class="cls-4" d="M8.15 136.29s-10.4 5.84 2.75 13.34c11.7 6.67 25.76-.25 25.76-.25l-11.44-14.92-17.08 1.83ZM272.48 111.53c0 4.74-.23 9.05-.66 12.57-.58 4.78-1.51 8.09-2.67 9.01-.13.11-.26.19-.39.23-32.75 11.78-77.43.19-79.44-.34 0 0-64.36-22.43-115.94-26.43.08-.03.15-.07.23-.1-.17 0-.26.08-.42.08h-.04v-.02l21.14-54.54s2.47-7.4 8.01-15.7c4.69-7.05 11.58-14.74 21.07-19.11 7.23-3.3 16.15-5.31 25.03-6.54 5.76-.8 11.5-1.27 16.75-1.54h.09c7.86-.4 16.39-.78 16.39-.78.83-5.42 6.41-6.09 8.48-5.77 4.75.72 7.28 3.95 6.53 8.06 0 0 33.45 15.65 41.65 22.32 3.81 3.09 19.39 18.53 26.38 34.22A73.05 73.05 0 0 1 268.81 79c2.61 10.39 3.68 22.43 3.69 32.53Z"/>
  <path d="M189.31 133.01c-1.12 1.16-21.09 21.66-48.16 34.86-6.19-11.33-30.43-51.42-67.85-61.26.02 0 .05-.02.07-.03 51.58 4 115.94 26.43 115.94 26.43Z" fill="#009be2"/>
  <path d="M141.15 167.87c-9.91 4.83-20.77 8.68-32.01 10.24-6.29.88-12.69 1.03-19.1.24 1.48-19.04 2.1-58.81-16.79-71.71.02 0 .04-.02.06-.03 37.41 9.84 61.65 49.93 67.85 61.26Z" fill="#00beec"/>
  <path d="M90.03 178.36c-.86-.1-1.72-.23-2.58-.37-8.56-1.39-17.12-4.5-25.45-9.88-13.15-8.49-44.65-32.68-54.14-31.59h-.09l.12-.02c-1.16.14 17.7-8.44 36.8-17.03l-.16-.06h.29c4.04-1.82 8.09-3.64 11.96-5.38 6.2-2.78 11.94-5.36 16.46-7.39 18.9 12.9 18.28 52.68 16.79 71.71Z" fill="#00c8e8"/>
</svg>