<svg xmlns="http://www.w3.org/2000/svg" fill="none" viewBox="0 0 324 155">
  <path fill="#F16A36" d="M.009 93.09V.004h33.64v92.522a42.2 42.2 0 0 0 6.845 25.54 25.603 25.603 0 0 0 9.805 6.853 25.694 25.694 0 0 0 11.864 1.662 24.526 24.526 0 0 0 11.608-1.658 24.408 24.408 0 0 0 9.487-6.854 40.217 40.217 0 0 0 6.844-25.543V0h33.072v93.09a92.269 92.269 0 0 1-3.422 24.975 51.031 51.031 0 0 1-11.403 19.302 43.025 43.025 0 0 1-19.386 11.918 81.447 81.447 0 0 1-27.371 3.973 81.447 81.447 0 0 1-27.371-3.973 47.589 47.589 0 0 1-18.913-11.964 47.29 47.29 0 0 1-11.309-19.253A74.384 74.384 0 0 1 .006 93.091h.003Zm152.816 57.898V.003H185.9v150.985h-33.075Zm54.17-17.029 17.111-21.567a68.945 68.945 0 0 0 17.104 11.349 52.19 52.19 0 0 0 20.526 4.542c10.264 0 17.676-2.269 22.241-7.38a27.559 27.559 0 0 0 6.841-19.298 27.245 27.245 0 0 0-6.844-19.864 24.25 24.25 0 0 0-8.857-5.862 24.339 24.339 0 0 0-10.53-1.518 33.596 33.596 0 0 0-14.825 3.404 39.876 39.876 0 0 0-13.117 10.787l-21.666-6.814 6.273-81.17h92.372l-1.708 24.41h-65.005l-2.85 34.058a49.29 49.29 0 0 1 11.403-6.811 60.745 60.745 0 0 1 19.386-2.838 53.641 53.641 0 0 1 21.102 3.972 42.036 42.036 0 0 1 15.623 10.469 41.773 41.773 0 0 1 9.465 16.21 50.87 50.87 0 0 1 2.851 20.432 61.331 61.331 0 0 1-3.994 22.14 51.673 51.673 0 0 1-11.974 17.026 64.268 64.268 0 0 1-18.816 11.352 75.337 75.337 0 0 1-25.088 3.973 81.533 81.533 0 0 1-32.501-5.676 119.006 119.006 0 0 1-24.523-15.326Z"/>
</svg>
